# xmcd
#
# Track frame offsets:
#	150
#	15352
#	34125
#	62197
#	86325
#	108322
#	137475
#	171060
#	185475
#	214572
#	232507
#	254250
#	274650
#
# Disc length: 3951 seconds
#
# Revision: 1
# Processed by: cddbd v1.5.2PL0 Copyright (c) Steve Scherf et al.
# Submitted via: audiograbber 1.83.01
#
DISCID=9d0f6d0d
DTITLE=the hardcore bluesband - between blues and hate
DYEAR=2006
DGENRE=Blues
TTITLE0=got to go
TTITLE1=i don't care
TTITLE2=beg you please
TTITLE3=triple x
TTITLE4=blinded
TTITLE5=goddamned rock n' roll
TTITLE6=in my blood
TTITLE7=higher
TTITLE8=understatement blues
TTITLE9=take it easy
TTITLE10=running down the floor
TTITLE11=i'm a man
TTITLE12=see my light come shine
EXTD=www.bluesband.ch\nbluedög production\n
EXTT0=
EXTT1=
EXTT2=
EXTT3=
EXTT4=
EXTT5=
EXTT6=
EXTT7=
EXTT8=
EXTT9=
EXTT10=
EXTT11=
EXTT12=
PLAYORDER=
